<svg xmlns="http://www.w3.org/2000/svg" viewBox="0 0 800 640" role="img" aria-label="Agenda personalizada 2027 com elástico e fita marcadora"><defs><filter id="s" x="-30%" y="-30%" width="170%" height="180%"><feGaussianBlur stdDeviation="11"/></filter></defs><rect width="800" height="640" fill="#fbf6ee"/><path d="M.8-.5C1.08-.04.9.62.36.86C-.16 1.08-.82.82-.96.26C-1.1-.3-.62-.9-.08-.96C.36-1 .62-.82.8-.5Z" transform="translate(668 150) rotate(12) scale(250 220)" fill="#edcf94"/><path d="M.92.08C.98.52.62.96.12.94C-.42.92-.98.56-.94-.02C-.9-.56-.46-.98.1-.92C.6-.86.86-.4.92.08Z" transform="translate(110 560) rotate(-14) scale(240 190)" fill="#f1d9d2"/><path d="M.98.3C.86.8.3 1.02-.22.9C-.78.78-1.06.22-.9-.3C-.74-.84-.16-1.04.36-.9C.86-.76 1.08-.16.98.3Z" transform="translate(96 96) rotate(8) scale(110 92)" fill="#d7d8c4"/><g transform="translate(700 610) rotate(14) scale(1.2)" fill="none" stroke="#6c4030" stroke-width="1.8" stroke-linecap="round" stroke-linejoin="round"><path d="M0 0C30-40 44-96 40-160"/><path d="M0 0C10-14 34-16 46-4C34 10 10 12 0 0Z" transform="translate(14 -22) rotate(-18)"/><path d="M0 0C10-14 34-16 46-4C34 10 10 12 0 0Z" transform="translate(12 -24) rotate(-152)"/><path d="M0 0C10-14 34-16 46-4C34 10 10 12 0 0Z" transform="translate(31 -70) rotate(-28)"/><path d="M0 0C10-14 34-16 46-4C34 10 10 12 0 0Z" transform="translate(30 -72) rotate(-160)"/><path d="M0 0C10-14 34-16 46-4C34 10 10 12 0 0Z" transform="translate(40 -118) rotate(-40)"/><path d="M0 0C10-14 34-16 46-4C34 10 10 12 0 0Z" transform="translate(40 -120) rotate(-172)"/><path d="M0 0C10-14 34-16 46-4C34 10 10 12 0 0Z" transform="translate(40 -160) rotate(-96)"/></g><g transform="translate(470 338) rotate(10) translate(-145.0 -196.0)"><rect x="7" y="15" width="290" height="392" rx="14" fill="#452a1e" opacity="0.2" filter="url(#s)"/><rect x="6" y="6" width="290" height="392" rx="14" fill="#efe3d3"/><rect x="3" y="3" width="290" height="392" rx="14" fill="#fffdfa"/><rect width="290" height="392" rx="14" fill="#d8ad65"/><path d="M14 0H30V392H14A14 14 0 0 1 0 378V14A14 14 0 0 1 14 0Z" fill="#c39650"/><path d="M15.0 22V374" stroke="#fffdfa" stroke-width="2.4" stroke-dasharray="9 11" stroke-linecap="round" opacity="0.85"/></g><g transform="translate(372 318) rotate(-6) translate(-145.0 -196.0)"><rect x="7" y="15" width="290" height="392" rx="14" fill="#452a1e" opacity="0.2" filter="url(#s)"/><path d="M121.8 386V450L132.8 438L143.8 450V386Z" fill="#b96f50"/><rect x="6" y="6" width="290" height="392" rx="14" fill="#efe3d3"/><rect x="3" y="3" width="290" height="392" rx="14" fill="#fffdfa"/><rect width="290" height="392" rx="14" fill="#9da180"/><path d="M14 0H30V392H14A14 14 0 0 1 0 378V14A14 14 0 0 1 14 0Z" fill="#858a69"/><path d="M15.0 22V374" stroke="#d7d8c4" stroke-width="2.4" stroke-dasharray="9 11" stroke-linecap="round" opacity="0.85"/><rect x="232" y="0" width="15" height="392" fill="#6c4030" opacity=".78"/><path d="M84.7 92 88.3 82.2H90.2L93.8 92H92L89.2 84.2L86.5 92ZM86.3 89.7 86.8 88.4H91.6L92 89.7ZM106.4 92.2Q105 92.2 104 91.5Q102.9 90.9 102.3 89.8Q101.8 88.7 101.8 87.1Q101.8 85.6 102.3 84.5Q102.9 83.3 104 82.7Q105.1 82 106.6 82Q108.4 82 109.5 82.9Q110.6 83.7 110.9 85.1H109.1Q108.8 84.4 108.2 84Q107.6 83.6 106.6 83.6Q105.6 83.6 104.9 84Q104.2 84.4 103.9 85.2Q103.5 86 103.5 87.2Q103.5 88.3 103.9 89.1Q104.2 89.9 104.9 90.3Q105.6 90.7 106.5 90.7Q107.9 90.7 108.6 89.9Q109.3 89.1 109.4 87.9H106.9V86.6H111.1V92H109.6L109.4 90.7Q109.1 91.1 108.7 91.5Q108.3 91.8 107.7 92Q107.1 92.2 106.4 92.2ZM119.9 92V82.2H126.2V83.6H121.6V86.4H125.8V87.7H121.6V90.6H126.2V92ZM135 92V82.2H136.7L141.4 89.3V82.2H143.1V92H141.4L136.7 84.9V92ZM152.1 92V82.2H155.2Q156.9 82.2 158 82.8Q159.2 83.4 159.7 84.5Q160.2 85.6 160.2 87.1Q160.2 88.6 159.7 89.7Q159.2 90.8 158 91.4Q156.9 92 155.2 92ZM153.7 90.6H155.1Q156.4 90.6 157.2 90.2Q157.9 89.7 158.2 89Q158.5 88.2 158.5 87.1Q158.5 86 158.2 85.2Q157.9 84.5 157.2 84Q156.4 83.6 155.1 83.6H153.7ZM168.2 92 171.8 82.2H173.7L177.3 92H175.5L172.7 84.2L170 92ZM169.8 89.7 170.3 88.4H175.1L175.6 89.7Z" fill="#fffdfa"/><path d="M99.3 193Q101.9 193.7 103.7 194.6Q105.6 195.6 106.8 196.6Q108.1 197.6 108.8 198.7Q109.5 199.7 109.9 200.7Q110.3 201.6 110.4 202.5Q110.5 203.3 110.5 203.9Q110.5 206 109.7 207.7Q108.9 209.3 107.6 210.6Q106.2 211.9 104.4 212.8Q102.6 213.6 100.6 214.2Q98.7 214.8 96.6 215Q94.6 215.3 92.7 215.3Q89.7 215.3 86.5 214.7Q83.3 214.1 80 212.7Q79.3 212.4 79.3 211.6Q79.3 211.1 79.7 210.8Q80 210.5 80.5 210.5Q80.7 210.5 80.9 210.6Q83.7 211.8 86.7 212.4Q89.7 213 92.7 213Q96.8 213 99.7 212.2Q102.6 211.4 104.5 210.1Q106.4 208.8 107.3 207.2Q108.2 205.6 108.2 203.9Q108.2 202.1 107.2 200.5Q106.2 198.9 104.3 197.7Q102.5 196.4 99.9 195.6Q97.3 194.7 94.1 194.3Q92 194.6 90 194.8Q88.1 194.9 86.4 194.9H85.7Q85.5 194.9 85.3 194.9Q83.1 200.1 80.1 203.9Q77.1 207.8 73.7 210.3Q70.3 212.8 66.7 214Q63.1 215.2 59.8 215.2Q56.4 215.2 53.5 214.2Q50.7 213.2 48.6 211.5Q46.6 209.7 45.4 207.2Q44.3 204.7 44.3 201.6Q44.3 198.4 45.5 195Q46.8 191.6 49.3 188Q51.6 184.7 54.5 182Q57.4 179.4 60.5 177.4Q63.7 175.4 67.1 174Q70.4 172.6 73.7 171.6Q77.1 170.7 80.2 170.3Q83.4 169.9 86.2 169.9Q88.4 169.9 90.5 170.1Q92.6 170.2 94.4 170.5Q95.5 169.3 96.2 168.8Q96.9 168.3 96.9 168.2Q97.3 168 97.6 168Q98 168 98.3 168.3Q98.7 168.5 98.7 169Q98.7 169.6 98.2 170Q97.8 170.4 97.1 171.1Q102.6 172.4 105.6 175.2Q108.5 177.9 108.5 181.9Q108.5 184.2 107.8 185.9Q107.1 187.7 105.8 189Q104.5 190.3 102.9 191.3Q101.2 192.3 99.3 193ZM94.1 192Q95.5 191.7 96.9 191.3Q98.3 190.9 99.6 190.4Q101 189.8 102.2 189Q103.4 188.3 104.3 187.2Q105.2 186.2 105.7 184.9Q106.2 183.6 106.2 181.9Q106.2 178.5 103.4 176.3Q100.6 174.1 95.3 173Q93.8 174.9 92.5 177.2Q91.2 179.5 90 181.9Q88.9 184.3 88 186.8Q87.1 189.3 86.6 191.7Q87.2 191.6 87.7 191.6Q88.2 191.6 88.6 191.6Q89.7 191.6 91.1 191.7Q92.5 191.8 94.1 192ZM92.8 172.6Q91.2 172.4 89.6 172.3Q88 172.2 86.2 172.2Q83.5 172.2 80.5 172.6Q77.5 173 74.4 173.9Q71.2 174.7 68 176.1Q64.8 177.4 61.8 179.3Q58.8 181.2 56.1 183.7Q53.3 186.2 51.1 189.4Q48.8 192.6 47.7 195.7Q46.5 198.8 46.5 201.6Q46.5 204.3 47.5 206.3Q48.4 208.4 50.2 209.9Q52 211.3 54.4 212.1Q56.9 212.8 59.8 212.8Q62.8 212.8 66 211.8Q69.2 210.7 72.3 208.5Q75.3 206.2 78.1 202.8Q80.8 199.4 82.9 194.7Q82.4 194.7 81.8 194.4Q81.2 194.1 81.2 193.4Q81.2 192.7 81.9 192.4Q82.6 192.1 84.1 191.8Q84.9 189.4 85.7 186.9Q86.6 184.4 87.6 182Q88.6 179.5 89.9 177.2Q91.1 174.9 92.8 172.6ZM118.6 210.7Q119.3 211.5 120.3 212.1Q121.3 212.6 122.7 212.6Q124.2 212.6 125.4 211.9Q126.6 211.2 127.6 210Q128.6 208.9 129.4 207.5Q130.2 206 130.8 204.6Q131 204.3 131.3 204.1Q131.5 203.9 131.9 203.9Q132.4 203.9 132.7 204.3Q133 204.7 133 205.1Q133 205.3 133 205.4Q133 205.5 132.9 205.6Q130.8 210.2 128.4 212.5Q125.9 214.8 122.8 214.9Q120.8 214.9 119.3 214.1Q117.9 213.4 116.9 212.1Q116 210.9 115.5 209.4Q115.1 207.8 115.1 206.3Q115.1 204.7 115.5 203.4Q115.8 202.1 116.5 201.2Q117.3 200.2 118.2 199.7Q119.2 199.1 120.4 199.1Q121.1 199.1 121.8 199.4Q122.5 199.7 123 200.2Q123.6 200.7 123.9 201.5Q124.2 202.3 124.2 203.2Q124.2 204.5 123.8 205.6Q123.4 206.6 122.6 207.6Q121.9 208.5 120.9 209.3Q119.8 210.1 118.6 210.7ZM117.7 208.7Q118.7 208.3 119.5 207.7Q120.2 207.1 120.8 206.4Q121.3 205.6 121.6 204.8Q121.9 204 121.9 203.2Q121.9 202.3 121.5 201.8Q121 201.4 120.4 201.4Q119.6 201.4 119 201.8Q118.4 202.3 118.1 203Q117.7 203.7 117.5 204.6Q117.4 205.5 117.4 206.4Q117.4 206.9 117.5 207.6Q117.6 208.2 117.7 208.7ZM154.2 205.6Q154.1 205.8 153.8 206.6Q153.4 207.3 152.8 208.3Q152.2 209.3 151.4 210.4Q150.6 211.5 149.6 212.4Q148.7 213.3 147.6 213.9Q146.4 214.5 145.2 214.5Q143.4 214.5 142.2 213.4Q141.1 212.3 140.5 210.6Q139.5 212.3 138.1 213.3Q136.6 214.3 135.2 214.3Q134.1 214.3 133.2 213.9Q132.3 213.5 131.6 212.8Q131 212 130.7 211Q130.3 210 130.3 208.9Q130.3 206.5 131.1 204.7Q131.9 202.9 133.1 201.7Q134.4 200.5 135.9 199.9Q137.4 199.3 138.8 199.3Q139.7 199.3 140.5 199.5Q141.3 199.8 141.9 200.1Q142.4 200.4 142.7 200.6Q143 200.9 143 200.9Q143.4 201.3 143.4 201.7Q143.4 202.2 143 202.5Q142.7 202.9 142.3 202.9Q141.8 202.9 141.4 202.6Q141.4 202.5 141.2 202.3Q141 202.2 140.6 202Q140.2 201.8 139.7 201.7Q139.2 201.5 138.6 201.5Q137.7 201.5 136.6 202Q135.5 202.4 134.7 203.3Q133.8 204.2 133.2 205.5Q132.6 206.9 132.6 208.7Q132.6 209.3 132.7 209.9Q132.8 210.5 133.1 210.9Q133.5 211.4 134 211.7Q134.5 212 135.2 212Q135.8 212 136.5 211.7Q137.2 211.3 137.9 210.5Q138.5 209.8 139 208.6Q139.6 207.5 139.8 205.9Q139.8 205.5 140.2 205.2Q140.5 204.9 141 204.9Q141.4 204.9 141.7 205.3Q142 205.6 142 206Q142.1 206.6 142.2 207.6Q142.3 208.7 142.6 209.7Q142.9 210.7 143.5 211.5Q144.2 212.2 145.3 212.2Q146 212.2 146.7 211.9Q147.4 211.5 148.1 210.8Q148.8 210.2 149.4 209.3Q150 208.5 150.6 207.6Q151.1 206.8 151.5 206Q151.9 205.2 152.1 204.6Q152.3 204.3 152.6 204.1Q152.9 203.9 153.2 203.9Q153.7 203.9 154 204.3Q154.3 204.7 154.3 205.1Q154.3 205.3 154.2 205.6ZM176.7 183.7Q176.7 184.2 176.3 184.5Q176 184.8 175.5 184.8H160.2V185.1Q160.2 186.9 159.9 189Q159.6 191.1 159.2 193.2Q158.7 195.3 158.1 197.2Q157.5 199.2 156.9 200.9Q156.3 202.5 155.7 203.8Q155.1 205 154.6 205.6Q155 207 155.5 208.2Q156.1 209.4 156.7 210.3Q157.4 211.2 158.2 211.7Q159 212.2 159.9 212.2Q161 212.2 162 211.3Q163.1 210.4 164 209.2Q164.8 207.9 165.5 206.7Q166.2 205.4 166.5 204.7Q166.8 203.9 167.6 203.9Q168.1 203.9 168.4 204.3Q168.7 204.7 168.7 205.1Q168.7 205.3 168.6 205.5Q168.5 205.7 168.2 206.5Q167.8 207.2 167.3 208.2Q166.7 209.2 166 210.4Q165.2 211.5 164.3 212.4Q163.4 213.3 162.3 213.9Q161.3 214.5 160.1 214.5Q158 214.5 156.3 213.1Q154.7 211.8 153.5 209.3Q152.3 206.9 151.7 203.5Q151.1 200.1 151.1 196.1Q151.1 195.1 151.2 193.8Q151.2 192.4 151.3 190.9Q151.4 189.4 151.6 187.9Q151.7 186.3 152 184.8H141.2Q140.7 184.8 140.4 184.5Q140 184.2 140 183.7Q140 183.2 140.4 182.9Q140.7 182.6 141.2 182.6H152.6Q152.9 181.5 153.3 180.6Q153.7 179.7 154.2 179.1Q154.7 178.4 155.4 178Q156 177.6 156.8 177.6Q157.6 177.6 158.1 178Q158.7 178.4 159.1 179.1Q159.5 179.7 159.7 180.6Q159.9 181.5 160.1 182.6H175.5Q176 182.6 176.3 182.9Q176.7 183.2 176.7 183.7ZM153.9 202.6Q154.8 200.6 155.5 198.2Q156.3 195.9 156.8 193.6Q157.3 191.2 157.6 188.9Q157.9 186.7 157.9 184.8H154.3Q153.9 186.6 153.7 189.4Q153.4 192.2 153.4 196.1Q153.4 198.3 153.5 199.8Q153.6 201.3 153.9 202.6ZM156.7 179.9Q156.4 179.9 155.9 180.5Q155.4 181.1 154.9 182.6H157.8Q157.6 181.4 157.4 180.6Q157.1 179.9 156.7 179.9ZM154.4 204.7V204.8ZM169.8 201.6Q169.7 202.4 169.5 203.1Q169.3 203.8 169.2 204.3Q169 204.9 168.9 205.2Q168.8 205.5 168.7 205.6Q168.4 206.2 167.7 206.2Q167.2 206.2 166.9 205.9Q166.5 205.6 166.5 205.1Q166.5 204.9 166.6 204.9Q166.6 204.8 166.8 204.5Q166.9 204.2 167.1 203.6Q167.2 203 167.5 201.6Q167 201.6 166.5 201.6Q165.9 201.6 165.4 201.4Q165 201.2 164.7 200.8Q164.4 200.4 164.4 199.7Q164.4 199.2 164.6 198.3Q164.9 197.4 165.4 196.6Q165.9 195.7 166.5 195.1Q167.1 194.5 167.7 194.5Q168.4 194.5 168.9 195Q169.3 195.5 169.5 196.3Q169.8 197 169.9 197.8Q170 198.7 170 199.3Q170.5 199.3 171 199.2Q171.5 199.2 172 199.2Q173.7 199.2 174.6 200Q175.5 200.7 175.5 202.5Q175.5 203.2 175.4 203.9Q175.3 204.7 175.2 205.5Q175.1 206.3 175 207.1Q174.9 207.9 174.9 208.6Q174.9 209.7 175.2 210.4Q175.5 211.1 176 211.5Q176.4 212 176.9 212.1Q177.4 212.3 177.9 212.3Q179.2 212.3 180.3 211.5Q181.5 210.6 182.4 209.4Q183.4 208.2 184.2 206.9Q184.9 205.6 185.5 204.6Q185.6 204.3 185.9 204.1Q186.2 204 186.5 204Q187 204 187.3 204.3Q187.6 204.7 187.6 205.1Q187.6 205.4 187.5 205.6Q186.8 206.9 185.9 208.4Q184.9 210 183.8 211.4Q182.6 212.7 181.1 213.7Q179.6 214.6 177.9 214.6Q176.8 214.6 175.8 214.2Q174.9 213.8 174.2 213Q173.4 212.2 173 211.1Q172.6 210 172.6 208.6Q172.6 207 172.9 205.5Q173.2 204 173.2 202.7Q173.2 202.1 172.9 201.8Q172.7 201.5 171.8 201.5Q171.4 201.5 170.9 201.5Q170.4 201.5 169.8 201.6ZM167.8 199.3Q167.8 199.1 167.8 198.8Q167.8 198.4 167.7 198.1Q167.7 197.7 167.6 197.5Q167.5 197.3 167.4 197.3Q167.3 197.3 167.2 197.5Q167.1 197.7 166.9 198Q166.8 198.3 166.6 198.7Q166.5 199.1 166.5 199.3ZM190.4 190.2Q190.4 191.4 189.6 192.2Q188.8 193 187.6 193Q186.5 193 185.7 192.2Q184.9 191.4 184.9 190.2Q184.9 189.7 185.1 189.2Q185.3 188.7 185.7 188.3Q186 187.9 186.5 187.7Q187 187.5 187.6 187.5Q188.2 187.5 188.7 187.7Q189.2 187.9 189.6 188.3Q189.9 188.7 190.2 189.2Q190.4 189.7 190.4 190.2ZM185.5 208Q185.5 203.6 186 199.3Q186.1 198.9 186.4 198.5Q186.7 198.2 187.2 198.2Q187.7 198.2 188 198.6Q188.3 198.9 188.3 199.4Q188.3 199.6 188.2 200.5Q188.1 201.4 188 202.6Q187.9 203.9 187.8 205.3Q187.8 206.7 187.8 207.9Q187.8 209.5 188.1 210.5Q188.4 211.5 188.9 212Q189.4 212.5 190 212.7Q190.5 212.9 191 212.9Q191.9 212.9 192.8 212.3Q193.7 211.7 194.6 210.6Q195.6 209.5 196.6 208Q197.5 206.5 198.5 204.6Q198.6 204.3 198.9 204.1Q199.2 203.9 199.5 203.9Q200 203.9 200.3 204.3Q200.6 204.7 200.6 205.1Q200.6 205.4 200.5 205.6Q200.1 206.3 199.6 207.3Q199.1 208.3 198.4 209.4Q197.7 210.4 196.8 211.5Q196 212.5 195.1 213.3Q194.1 214.2 193.1 214.7Q192.1 215.2 191 215.2Q189.6 215.2 188.6 214.6Q187.6 214.1 186.9 213.1Q186.2 212.1 185.8 210.8Q185.5 209.5 185.5 208ZM188.7 190.2Q188.7 189.8 188.4 189.5Q188 189.2 187.6 189.2Q187.2 189.2 186.9 189.5Q186.6 189.8 186.6 190.2Q186.6 190.7 186.9 191Q187.2 191.3 187.6 191.3Q188 191.3 188.4 191Q188.7 190.7 188.7 190.2ZM212.6 218.5Q212.8 220.9 212.8 224.4Q212.8 228 212.4 231.1Q211.9 234.2 211 236.4Q210.2 238.6 208.9 239.9Q207.6 241.1 205.9 241.1Q205 241.1 204.3 240.7Q203.5 240.3 202.9 239.6Q202.4 238.9 202.1 237.9Q201.7 236.9 201.7 235.6Q201.7 233.8 202.2 231.7Q202.6 229.7 203.6 227.4Q204.6 225.2 206.3 222.7Q207.9 220.3 210.3 217.7Q210.2 216.4 210 215.2Q209.8 214.1 209.5 213.3Q209.2 212.5 208.8 212Q208.3 211.6 207.8 211.6Q207.6 211.6 207.3 211.6Q206.7 212.5 206.1 212.9Q205.5 213.4 205.1 213.6Q204.6 213.8 204.3 213.9Q204 214 203.8 214Q203.3 214 202.9 213.7Q202.4 213.4 202.4 212.6Q202.4 212.3 202.6 211.9Q202.8 211.5 203.2 211Q203.7 210.5 204.4 210.1Q205.2 209.7 206.2 209.5Q208.2 207.4 209.3 205.6Q210.5 203.8 210.5 202.2Q210.5 200.8 209.6 200Q208.8 199.2 207.5 199.2Q205.7 199.2 203.8 200.9Q202 202.6 200.6 205.6Q200.2 206.2 199.5 206.2Q199 206.2 198.7 205.9Q198.4 205.5 198.4 205.1Q198.4 204.8 198.5 204.6Q200.3 201 202.6 198.9Q205 196.9 207.5 196.9Q208.5 196.9 209.5 197.3Q210.4 197.6 211.2 198.3Q211.9 199 212.3 200Q212.7 201 212.7 202.2Q212.7 203.3 212.5 204.3Q212.2 205.3 211.7 206.2Q211.2 207.1 210.6 207.9Q209.9 208.8 209.3 209.6Q210.1 209.9 210.6 210.6Q211.1 211.3 211.5 212.1Q211.8 212.9 212 213.8Q212.2 214.7 212.3 215.5Q213.5 214.2 214.7 212.8Q215.9 211.5 217.1 210Q218.2 208.6 219.2 207.2Q220.2 205.9 220.7 204.6Q220.9 204.3 221.1 204.1Q221.4 204 221.7 204Q222.2 204 222.6 204.3Q222.9 204.7 222.9 205.1Q222.9 205.3 222.8 205.6Q222.1 207.1 220.9 208.8Q219.7 210.5 218.3 212.3Q216.9 214 215.4 215.6Q213.9 217.2 212.6 218.5ZM210.5 220.9Q208.6 223.2 207.3 225.3Q206.1 227.4 205.4 229.2Q204.6 231 204.3 232.5Q204 234.1 204 235.4Q204 236.9 204.6 237.9Q205.1 238.8 205.9 238.8Q207 238.8 207.8 237.7Q208.7 236.6 209.3 234.8Q209.9 232.9 210.2 230.3Q210.6 227.7 210.6 224.7Q210.6 224 210.5 223Q210.5 222 210.5 220.9Z" fill="#fffdfa"/><path d="M84 250H180" stroke="#fffdfa" stroke-width="1.6" opacity=".7"/><path d="M109.2 280.1Q111.3 280.1 112.5 280.9Q113.7 281.8 113.7 283.2Q113.7 284.4 113 285.5Q112.2 286.6 111 287.6Q109.8 288.6 108.4 289.5Q107.1 290.4 105.8 291.2Q104.6 291.9 103.8 292.6Q104.5 292.6 105.5 292.8Q106.5 293 107.6 293.2Q108.6 293.4 109.5 293.4Q110.6 293.4 111.3 293Q111.9 292.7 111.9 291.9Q111.9 291 110.7 290.4L111.1 290Q111.9 290.4 112.4 291Q112.8 291.6 112.8 292.5Q112.8 293.4 112.3 294.2Q111.9 295.1 110.9 295.6Q110 296.2 108.4 296.2Q107.4 296.2 106.6 296Q105.7 295.8 104.7 295.5Q103.8 295.3 102.7 295.3Q101.5 295.2 100.8 295.4Q100 295.6 99.1 296L99.2 295.4Q99.9 294.8 100.9 294.1Q102 293.4 103.2 292.4Q104.4 291.5 105.6 290.5Q106.8 289.4 107.8 288.2Q108.8 287.1 109.4 285.9Q110 284.6 110 283.4Q110 282.2 109.4 281.5Q108.8 280.9 107.7 280.9Q106.8 280.9 105.9 281.3Q105 281.7 104.3 282.4Q103.5 283 103 283.9Q102.6 284.7 102.6 285.6Q102.6 286.3 103 286.7Q103.4 287 104.3 287Q105.2 287 105.8 286.7Q106.4 286.4 107.1 285.8L107.4 286.2Q106.6 287 105.7 287.3Q104.9 287.7 104.1 287.7Q103.6 287.7 103.1 287.5Q102.6 287.3 102.2 286.9Q101.9 286.5 101.9 285.6Q101.9 284.6 102.4 283.7Q102.9 282.7 103.9 281.9Q104.9 281.1 106.3 280.6Q107.6 280.1 109.2 280.1ZM126.7 280.1Q129.3 280.1 130.7 281.5Q132.2 283 132.2 285.5Q132.2 287.5 131.4 289.5Q130.5 291.4 129.1 293Q127.7 294.6 125.8 295.5Q124 296.4 121.9 296.4Q119.3 296.4 117.8 295Q116.3 293.6 116.3 291Q116.3 288.9 117.1 287Q117.9 285.1 119.4 283.5Q120.8 281.9 122.7 281Q124.6 280.1 126.7 280.1ZM126.2 280.6Q124.9 280.6 123.8 281.6Q122.7 282.5 121.9 284.1Q121 285.6 120.6 287.5Q120.1 289.5 120.1 291.5Q120.1 293.9 120.8 294.9Q121.5 295.9 122.4 295.9Q123.7 295.9 124.8 294.9Q125.9 293.9 126.7 292.3Q127.5 290.7 127.9 288.8Q128.3 286.9 128.3 284.9Q128.3 282.6 127.7 281.6Q127.1 280.6 126.2 280.6ZM143 280.1Q145.1 280.1 146.3 280.9Q147.5 281.8 147.5 283.2Q147.5 284.4 146.8 285.5Q146 286.6 144.8 287.6Q143.6 288.6 142.2 289.5Q140.9 290.4 139.6 291.2Q138.4 291.9 137.6 292.6Q138.3 292.6 139.3 292.8Q140.3 293 141.4 293.2Q142.4 293.4 143.3 293.4Q144.4 293.4 145.1 293Q145.8 292.7 145.8 291.9Q145.8 291 144.6 290.4L144.9 290Q145.8 290.4 146.2 291Q146.6 291.6 146.6 292.5Q146.6 293.4 146.1 294.2Q145.7 295.1 144.7 295.6Q143.8 296.2 142.2 296.2Q141.3 296.2 140.4 296Q139.5 295.8 138.5 295.5Q137.6 295.3 136.5 295.3Q135.3 295.2 134.6 295.4Q133.8 295.6 132.9 296L133 295.4Q133.7 294.8 134.7 294.1Q135.8 293.4 137 292.4Q138.2 291.5 139.4 290.5Q140.6 289.4 141.6 288.2Q142.6 287.1 143.2 285.9Q143.8 284.6 143.8 283.4Q143.8 282.2 143.2 281.5Q142.6 280.9 141.5 280.9Q140.7 280.9 139.8 281.3Q138.9 281.7 138.1 282.4Q137.3 283 136.9 283.9Q136.4 284.7 136.4 285.6Q136.4 286.3 136.8 286.7Q137.2 287 138.1 287Q139 287 139.6 286.7Q140.2 286.4 140.9 285.8L141.3 286.2Q140.4 287 139.5 287.3Q138.7 287.7 137.9 287.7Q137.4 287.7 136.9 287.5Q136.4 287.3 136 286.9Q135.7 286.5 135.7 285.6Q135.7 284.6 136.2 283.7Q136.8 282.7 137.7 281.9Q138.7 281.1 140.1 280.6Q141.4 280.1 143 280.1ZM155.2 280.3Q156.5 280.3 157.6 280.7Q158.7 281 159.8 281.4Q160.8 281.7 162.2 281.8Q163.1 281.8 163.8 281.6Q164.6 281.4 165.2 280.5H166Q164.7 282.1 163.5 283.4Q162.3 284.8 161.2 286.2Q160 287.6 159 289.1Q158.1 290.6 157.3 292.4Q156.5 294.1 155.9 296.2Q155.8 296.8 155.7 297.2Q155.6 297.6 155.6 297.9Q155.5 298.2 155.4 298.6Q155.2 299.3 154.6 299.9Q154 300.4 153 300.4Q152.3 300.4 151.9 300.1Q151.6 299.8 151.5 299.2Q151.5 298.6 151.6 298Q152 296.4 153.1 294.6Q154.2 292.8 155.7 290.9Q157.3 289.1 158.9 287.4Q160.6 285.6 162.1 284.1Q163.6 282.6 164.6 281.4Q164.6 281.4 164.9 281.3Q165.1 281.2 165.1 281.2Q164.1 281.9 163.3 282.5Q162.5 283 161.7 283.3Q161 283.7 160.2 283.9Q159.5 284.1 158.7 284.1Q157.7 284.1 156.9 283.8Q156.1 283.6 155.4 283.4Q154.8 283.1 153.9 283.1Q152.9 283.1 152.3 283.6Q151.6 284 151.6 285Q151.6 286.2 152.6 287Q153.5 287.7 155.4 288.2L155.2 288.6Q153.2 288.2 151.9 287.2Q150.6 286.2 150.6 284.4Q150.6 283.4 151.1 282.5Q151.5 281.6 152.6 281Q153.6 280.3 155.2 280.3Z" fill="#fffdfa"/></g><g transform="translate(150 470) rotate(58) translate(-115.0 -9.0)"><rect x="5" y="10" width="230" height="18" rx="9" fill="#452a1e" opacity="0.18" filter="url(#s)"/><path d="M0 9L20 2V16Z" fill="#6c4030"/><rect x="18" y="0" width="212" height="18" rx="9" fill="#e7b5a2"/><rect x="138" y="0" width="92" height="18" rx="9" fill="#d59b86"/><rect x="152" y="-3" width="46" height="5" rx="2.5" fill="#fffdfa" opacity=".7"/></g><path d="M0 8C-6-6-24-4-20 10C-17 20-6 26 0 32C6 26 17 20 20 10C24-4 6-6 0 8Z" transform="translate(690 96) rotate(10) scale(1.0)" fill="none" stroke="#6c4030" stroke-width="2.4" stroke-linejoin="round"/><path d="M0 8C-6-6-24-4-20 10C-17 20-6 26 0 32C6 26 17 20 20 10C24-4 6-6 0 8Z" transform="translate(120 120) rotate(-14) scale(0.7)" fill="none" stroke="#b96f50" stroke-width="3.1" stroke-linejoin="round"/></svg>